<svg width="151" height="88" viewBox="0 0 151 88" fill="none" xmlns="http://www.w3.org/2000/svg">
<path d="M148.696 1.99975C125.302 17.1896 101.252 37.1034 94.634 65.6876C93.602 70.1449 92.7454 81.164 99.5816 81.8023C105.581 82.3624 114.469 76.0368 116.063 70.4996C120.211 56.0877 120.964 36.4388 100.831 36.089C78.9131 35.7082 53.2886 48.1981 34.696 59.0596C25.6778 64.3279 15.2368 71.383 8.08262 79.0462C3.33342 84.1334 8.59727 81.4023 12.8544 80.2054C18.9091 78.5031 32.8901 74.5723 19.4854 78.3411C14.0386 79.8725 8.32536 82.4036 3.83121 85.1737C-0.973648 88.1353 5.21541 79.7625 5.67858 78.4023C7.13877 74.1141 8.31349 67.5137 7.06602 63.0767" stroke="#548235" stroke-width="3.15141" stroke-linecap="round"/>
</svg>
