<svg width="48" height="48" viewBox="0 0 48 48" fill="#000" xmlns="http://www.w3.org/2000/svg">
<path d="M3.25807 15.5492C3.00266 14.5976 2.93726 13.6049 3.06562 12.628C3.19397 11.6511 3.51356 10.7091 4.00613 9.85571C4.49869 9.00236 5.15458 8.25442 5.93631 7.65465C6.71804 7.05487 7.61029 6.615 8.56207 6.36019L20.1511 3.25519C21.1029 2.99983 22.0957 2.93456 23.0728 3.0631C24.0499 3.19165 24.992 3.5115 25.8454 4.00436C26.6988 4.49723 27.4467 5.15344 28.0463 5.9355C28.6459 6.71756 29.0856 7.61013 29.3401 8.56219L31.0621 15.0002H27.9601L26.4421 9.33619C26.1327 8.18382 25.3784 7.20148 24.345 6.60515C23.3115 6.00882 22.0836 5.84733 20.9311 6.15619L9.33607 9.26119C8.18371 9.57051 7.20136 10.3248 6.60504 11.3583C6.00871 12.3917 5.84722 13.6197 6.15607 14.7722L9.26107 26.3642C9.5704 27.5165 10.3247 28.4989 11.3582 29.0952C12.3916 29.6915 13.6196 29.853 14.7721 29.5442L15.0001 29.4842V32.5682C13.141 32.9194 11.2178 32.555 9.61609 31.548C8.01435 30.541 6.85238 28.9658 6.36307 27.1382L3.25807 15.5492ZM24.0001 18.0002C22.4088 18.0002 20.8827 18.6323 19.7574 19.7575C18.6322 20.8828 18.0001 22.4089 18.0001 24.0002V39.0002C18.0001 40.5915 18.6322 42.1176 19.7574 43.2428C20.8827 44.368 22.4088 45.0002 24.0001 45.0002H39.0001C40.5914 45.0002 42.1175 44.368 43.2427 43.2428C44.3679 42.1176 45.0001 40.5915 45.0001 39.0002V24.0002C45.0001 22.4089 44.3679 20.8828 43.2427 19.7575C42.1175 18.6323 40.5914 18.0002 39.0001 18.0002H24.0001ZM21.0001 24.0002C21.0001 23.2045 21.3161 22.4415 21.8788 21.8789C22.4414 21.3163 23.2044 21.0002 24.0001 21.0002H39.0001C39.7957 21.0002 40.5588 21.3163 41.1214 21.8789C41.684 22.4415 42.0001 23.2045 42.0001 24.0002V39.0002C42.0001 39.7958 41.684 40.5589 41.1214 41.1215C40.5588 41.6841 39.7957 42.0002 39.0001 42.0002H24.0001C23.2044 42.0002 22.4414 41.6841 21.8788 41.1215C21.3161 40.5589 21.0001 39.7958 21.0001 39.0002V24.0002ZM33.0001 25.5002C33.0001 25.1024 32.842 24.7208 32.5607 24.4395C32.2794 24.1582 31.8979 24.0002 31.5001 24.0002C31.1022 24.0002 30.7207 24.1582 30.4394 24.4395C30.1581 24.7208 30.0001 25.1024 30.0001 25.5002V30.0002H25.5001C25.1022 30.0002 24.7207 30.1582 24.4394 30.4395C24.1581 30.7208 24.0001 31.1024 24.0001 31.5002C24.0001 31.898 24.1581 32.2795 24.4394 32.5608C24.7207 32.8421 25.1022 33.0002 25.5001 33.0002H30.0001V37.5002C30.0001 37.898 30.1581 38.2795 30.4394 38.5608C30.7207 38.8421 31.1022 39.0002 31.5001 39.0002C31.8979 39.0002 32.2794 38.8421 32.5607 38.5608C32.842 38.2795 33.0001 37.898 33.0001 37.5002V33.0002H37.5001C37.8979 33.0002 38.2794 32.8421 38.5607 32.5608C38.842 32.2795 39.0001 31.898 39.0001 31.5002C39.0001 31.1024 38.842 30.7208 38.5607 30.4395C38.2794 30.1582 37.8979 30.0002 37.5001 30.0002H33.0001V25.5002Z" fill="#548235"/>
</svg>
