<svg width="48" height="48" viewBox="0 0 48 48" fill="none" xmlns="http://www.w3.org/2000/svg">
<path d="M9.14951 1.05176C13.7233 7.06901 16.2927 13.6763 18.2256 21.6855H10.9716L12.1407 23.1152L14.8068 26.3758L23.6602 37.4617L25.8458 34.702L35.3174 23.1151L36.4864 21.6854H29.4756C31.4088 13.6761 33.9779 7.0691 38.5519 1.05176H31.0988C27.1416 7.68307 25.9557 14.7446 24.9404 23.4374H32.7919L23.7305 34.5233L14.666 23.4374H22.752C21.7545 14.7352 20.3887 7.59429 16.4824 1.05176H9.14951ZM9.60654 35.0418C8.98966 35.1979 8.39998 35.3628 7.84273 35.537C5.81398 36.1713 4.20101 36.9259 3.15523 37.6991C2.10954 38.4723 1.69629 39.1872 1.69629 39.8057C1.69629 40.4239 2.10954 41.1388 3.15523 41.9119C4.20091 42.6851 5.81398 43.4397 7.84273 44.0741C11.9 45.3428 17.6072 46.1483 23.9091 46.1483C30.2113 46.1483 35.9183 45.3428 39.9756 44.0741C42.0044 43.4397 43.6174 42.6851 44.6631 41.9119C45.7088 41.1388 46.1222 40.4239 46.1222 39.8056C46.1222 39.1872 45.7087 38.4723 44.663 37.699C43.6174 36.9259 42.0043 36.1714 39.9755 35.5369C39.4183 35.3628 38.8287 35.1979 38.2119 35.0419C39.9794 35.8988 41.0098 36.9226 41.0098 38.0243C41.0098 41.0305 33.3537 43.4676 23.9091 43.4676C14.4648 43.4676 6.80866 41.0305 6.80866 38.0243C6.80866 36.9228 7.83898 35.8987 9.60654 35.0419V35.0418ZM15.6005 35.578C15.1435 35.688 14.7087 35.8065 14.3057 35.9324C13.1038 36.3083 12.1557 36.758 11.5723 37.1894C10.9888 37.6206 10.831 37.9586 10.831 38.1825C10.831 38.4065 10.9889 38.7444 11.5723 39.1758C12.1558 39.607 13.1038 40.0567 14.3058 40.4326C16.7097 41.1844 20.1302 41.6691 23.9092 41.6691C27.6883 41.6691 31.1119 41.1844 33.5158 40.4326C34.7177 40.0568 35.6629 39.6072 36.2463 39.1759C36.8297 38.7445 36.9874 38.4066 36.9874 38.1827C36.9874 37.9589 36.8298 37.6209 36.2464 37.1897C35.6629 36.7584 34.7179 36.3086 33.5159 35.9328C33.112 35.8066 32.6763 35.6885 32.218 35.5784C33.0329 36.0272 33.5013 36.5492 33.5013 37.1046C33.5013 38.7909 29.2068 40.1575 23.9094 40.1575C18.6122 40.1575 14.3179 38.7909 14.3179 37.1047C14.3179 36.5494 14.7868 36.0272 15.6009 35.5785L15.6005 35.578Z" fill="#548235"/>
</svg>
