<svg width="48" height="48" viewBox="0 0 48 48" fill="none" xmlns="http://www.w3.org/2000/svg">
<path d="M44 29.9999C41 35.9999 41 41.6659 41 46.9999H29C29 41.6659 29 35.9999 26 29.9999M26 22.9999H19.708C18.9086 23 18.1275 22.7605 17.4655 22.3124C16.8035 21.8643 16.291 21.2281 15.994 20.4859L13 12.9999H11.82C10.6198 12.9996 9.4596 13.431 8.55118 14.2153C7.64275 14.9996 7.04674 16.0845 6.872 17.2719L5 29.9999V47.9999M13 29.9999V47.9999M32.5 27.9999C33.163 27.9999 33.7989 27.7365 34.2678 27.2677C34.7366 26.7988 35 26.1629 35 25.4999C35 24.8369 34.7366 24.201 34.2678 23.7321C33.7989 23.2633 33.163 22.9999 32.5 22.9999C31.837 22.9999 31.2011 23.2633 30.7322 23.7321C30.2634 24.201 30 24.8369 30 25.4999C30 26.1629 30.2634 26.7988 30.7322 27.2677C31.2011 27.7365 31.837 27.9999 32.5 27.9999ZM11.7 8.99991C11.7 8.99991 8.5 6.99991 8.5 4.49991C8.5 3.57271 8.86833 2.68349 9.52395 2.02786C10.1796 1.37223 11.0688 1.00391 11.996 1.00391C12.9232 1.00391 13.8124 1.37223 14.468 2.02786C15.1237 2.68349 15.492 3.57271 15.492 4.49991C15.492 6.99991 12.3 8.99991 12.3 8.99991H11.7Z" stroke="#548235"/>
</svg>
