<svg width="48" height="48" viewBox="0 0 48 48" fill="none" xmlns="http://www.w3.org/2000/svg">
<path d="M28.0992 34.2003L31.9997 42.0003L35.9597 37.9395L42 38L36.3802 26.84V26.8208M19.9008 34.2003L16.0003 42.0003L12.0403 37.9395L6 38L11.6198 26.84V26.8208" stroke="white" stroke-linecap="round" stroke-linejoin="round"/>
<path d="M38.5603 19.9998C38.5603 21.5205 37.2202 22.8001 36.7795 24.1605C36.3399 25.5198 36.6403 27.3803 35.7802 28.5601C34.92 29.74 33.0797 30.0001 31.9997 30.8805C30.9197 31.7608 30 33.4005 28.6003 33.8603C27.1997 34.3201 25.6195 33.4398 24.0999 33.4398C22.5802 33.4398 20.9607 34.3 19.6003 33.8603C18.24 33.4197 17.3799 31.7195 16.2 30.8805C15.0192 30.0405 13.1799 29.74 12.3197 28.5601C11.4595 27.3793 11.7802 25.5601 11.3203 24.1605C10.8595 22.7598 9.4397 21.5205 9.4397 19.9998C9.4397 18.4792 10.7799 17.2005 11.2195 15.8401C11.6592 14.4798 11.3597 12.6203 12.2199 11.4405C13.08 10.2606 14.9203 10.0005 16.1002 9.12014C17.28 8.23982 18 6.60014 19.4995 6.1403C21 5.6795 22.4803 6.55982 24 6.55982C25.5197 6.55982 27.1392 5.69966 28.5005 6.1403C29.8599 6.57998 30.72 8.28014 31.9997 9.12014C33.2794 9.96014 35.0199 10.2597 35.88 11.4405C36.7402 12.6213 36.4205 14.4405 36.8803 15.8401C37.3402 17.2398 38.5603 18.4801 38.5603 19.9998ZM24 13.9998C22.4086 13.9998 20.8823 14.632 19.757 15.7573C18.6317 16.8826 17.9995 18.4089 17.9995 20.0003C17.9995 21.5917 18.6317 23.118 19.757 24.2433C20.8823 25.3686 22.4086 26.0008 24 26.0008C25.5913 26.0008 27.1174 25.3686 28.2427 24.2434C29.3679 23.1182 30 21.5921 30 20.0008C30 18.4095 29.3679 16.8834 28.2427 15.7581C27.1174 14.6329 25.5913 13.9998 24 13.9998Z" stroke="#548235" stroke-linecap="round" stroke-linejoin="round"/>
</svg>
