<svg width="48" height="48" viewBox="0 0 48 48" fill="none" xmlns="http://www.w3.org/2000/svg">
<path d="M6.77009 36C5.85009 36 5.08142 35.692 4.46409 35.076C3.84675 34.46 3.53809 33.6913 3.53809 32.77V15.23C3.53809 14.31 3.84675 13.542 4.46409 12.926C5.08142 12.31 5.84942 12.0013 6.76809 12H24.3081C25.2281 12 25.9968 12.3087 26.6141 12.926C27.2314 13.5433 27.5394 14.312 27.5381 15.232V32.77C27.5381 33.69 27.2301 34.4587 26.6141 35.076C25.9981 35.6933 25.2294 36.0013 24.3081 36H6.77009ZM6.77009 34H24.3081C24.6148 34 24.8968 33.872 25.1541 33.616C25.4101 33.3587 25.5381 33.076 25.5381 32.768V15.232C25.5381 14.924 25.4101 14.6413 25.1541 14.384C24.8981 14.1267 24.6161 13.9987 24.3081 14H6.76809C6.46142 14 6.18009 14.128 5.92409 14.384C5.66809 14.64 5.53942 14.922 5.53809 15.23V32.77C5.53809 33.0767 5.66675 33.3587 5.92409 33.616C6.18142 33.8733 6.46342 34.0013 6.77009 34ZM8.46209 29.54H22.6161L18.3381 23.768L14.5381 28.768L11.7381 25.068L8.46209 29.54ZM34.0001 36V12H36.0001V36H34.0001ZM42.4601 36V12H44.4601V36H42.4601Z" fill="#548235"/>
</svg>
