<svg width="48" height="48" viewBox="0 0 48 48" fill="none" xmlns="http://www.w3.org/2000/svg">
<path d="M8 33.1542V36.7702C8 37.0768 8.128 37.3588 8.384 37.6162C8.64 37.8735 8.922 38.0015 9.23 38.0002H38.77C39.0767 38.0002 39.3587 37.8722 39.616 37.6162C39.8733 37.3602 40.0013 37.0782 40 36.7702V33.1542H8ZM9.232 14.0782H15.9C15.7333 13.7782 15.5933 13.4615 15.48 13.1282C15.3653 12.7948 15.308 12.4448 15.308 12.0782C15.308 10.9488 15.6927 9.9995 16.462 9.23017C17.2313 8.46217 18.18 8.07817 19.308 8.07817C19.9853 8.07817 20.6113 8.2555 21.186 8.61017C21.7607 8.96484 22.2627 9.40484 22.692 9.93017L23.922 11.6162L25.154 9.93017C25.574 9.38751 26.076 8.94284 26.66 8.59617C27.244 8.2495 27.8727 8.07617 28.546 8.07617C29.6687 8.07617 30.6153 8.46084 31.386 9.23017C32.154 9.9995 32.538 10.9488 32.538 12.0782C32.538 12.4448 32.4873 12.7948 32.386 13.1282C32.2847 13.4615 32.138 13.7782 31.946 14.0782H38.768C39.6893 14.0782 40.458 14.3862 41.074 15.0022C41.69 15.6182 41.9987 16.3868 42 17.3082V36.7682C42 37.6895 41.6913 38.4588 41.074 39.0762C40.4567 39.6935 39.6887 40.0015 38.77 40.0002H9.23C8.31 40.0002 7.542 39.6922 6.926 39.0762C6.31 38.4602 6.00133 37.6908 6 36.7682V17.3082C6 16.3882 6.30867 15.6195 6.926 15.0022C7.54333 14.3848 8.31133 14.0768 9.23 14.0782M8 28.8462H40V17.3062C40 16.9995 39.872 16.7182 39.616 16.4622C39.36 16.2062 39.0773 16.0782 38.768 16.0782H27.108L31.078 21.5462L29.492 22.6922L23.922 15.1082L18.354 22.6922L16.77 21.5462L20.716 16.0782H9.23C8.92333 16.0782 8.64133 16.2062 8.384 16.4622C8.12667 16.7182 7.99867 17.0002 8 17.3082V28.8462ZM19.308 14.0782C19.8747 14.0782 20.3493 13.8862 20.732 13.5022C21.1147 13.1182 21.3067 12.6435 21.308 12.0782C21.3093 11.5128 21.1173 11.0375 20.732 10.6522C20.3467 10.2668 19.872 10.0748 19.308 10.0762C18.744 10.0775 18.2687 10.2695 17.882 10.6522C17.4953 11.0348 17.304 11.5102 17.308 12.0782C17.312 12.6462 17.5033 13.1208 17.882 13.5022C18.2607 13.8835 18.736 14.0755 19.308 14.0782ZM28.538 14.0782C29.1047 14.0782 29.58 13.8862 29.964 13.5022C30.348 13.1182 30.5393 12.6435 30.538 12.0782C30.5367 11.5128 30.3453 11.0375 29.964 10.6522C29.5827 10.2668 29.1073 10.0748 28.538 10.0762C27.9687 10.0775 27.494 10.2695 27.114 10.6522C26.734 11.0348 26.542 11.5102 26.538 12.0782C26.534 12.6462 26.726 13.1208 27.114 13.5022C27.502 13.8835 27.9767 14.0755 28.538 14.0782Z" fill="#548235"/>
</svg>
