<svg width="48" height="48" viewBox="0 0 48 48" fill="none" xmlns="http://www.w3.org/2000/svg">
<path d="M17.6249 39.0001C17.6249 39.2985 17.5064 39.5846 17.2954 39.7956C17.0844 40.0066 16.7983 40.1251 16.4999 40.1251H7.49992C6.77666 40.1234 6.06658 39.9315 5.44087 39.5688C4.81516 39.206 4.29583 38.6851 3.93495 38.0584C3.57407 37.4316 3.38433 36.7209 3.38477 35.9977C3.3852 35.2744 3.57579 34.564 3.93742 33.9376L10.8205 22.0426L7.30304 22.9801C7.01462 23.0572 6.70739 23.0165 6.44894 22.8671C6.19049 22.7177 6.002 22.4717 5.92492 22.1832C5.84784 21.8948 5.88849 21.5876 6.03794 21.3291C6.18738 21.0707 6.43337 20.8822 6.72179 20.8051L12.8662 19.1607C13.0095 19.1217 13.1591 19.1114 13.3064 19.1304C13.4537 19.1495 13.5958 19.1975 13.7245 19.2718C13.8531 19.3461 13.9658 19.4451 14.056 19.5631C14.1462 19.6811 14.2121 19.8159 14.2499 19.9595L15.8999 26.102C15.9382 26.2447 15.948 26.3935 15.9288 26.54C15.9096 26.6865 15.8617 26.8277 15.7878 26.9557C15.714 27.0837 15.6157 27.1959 15.4985 27.2858C15.3814 27.3758 15.2476 27.4418 15.1049 27.4801C15.0096 27.506 14.9112 27.5193 14.8124 27.5195C14.5649 27.5192 14.3243 27.4373 14.1281 27.2865C13.9318 27.1356 13.7907 26.9243 13.7268 26.6851L12.7893 23.1601L5.88367 35.0626C5.71942 35.3471 5.63279 35.6697 5.63246 35.9982C5.63212 36.3267 5.7181 36.6495 5.88177 36.9344C6.04545 37.2192 6.28107 37.456 6.56506 37.6211C6.84905 37.7862 7.17143 37.8738 7.49992 37.8751H16.4999C16.7983 37.8751 17.0844 37.9936 17.2954 38.2046C17.5064 38.4156 17.6249 38.7017 17.6249 39.0001ZM44.0624 33.9376L39.7237 26.4376C39.568 26.1927 39.3237 26.0175 39.0419 25.9485C38.7601 25.8794 38.4625 25.922 38.2113 26.0672C37.96 26.2124 37.7747 26.449 37.6938 26.7277C37.613 27.0064 37.6429 27.3055 37.7774 27.5626L42.1162 35.0626C42.2804 35.3471 42.367 35.6697 42.3674 35.9982C42.3677 36.3267 42.2817 36.6495 42.1181 36.9344C41.9544 37.2192 41.7188 37.456 41.4348 37.6211C41.1508 37.7862 40.8284 37.8738 40.4999 37.8751H26.7149L29.2949 35.2951C29.4936 35.0819 29.6018 34.7998 29.5967 34.5083C29.5915 34.2169 29.4735 33.9388 29.2673 33.7327C29.0612 33.5266 28.7832 33.4085 28.4917 33.4034C28.2002 33.3982 27.9182 33.5064 27.7049 33.7051L23.2049 38.2051C22.9942 38.4161 22.8759 38.702 22.8759 39.0001C22.8759 39.2982 22.9942 39.5842 23.2049 39.7951L27.7049 44.2951C27.9182 44.4938 28.2002 44.602 28.4917 44.5969C28.7832 44.5917 29.0612 44.4737 29.2673 44.2676C29.4735 44.0614 29.5915 43.7834 29.5967 43.4919C29.6018 43.2005 29.4936 42.9184 29.2949 42.7051L26.7149 40.1251H40.4999C41.2232 40.1234 41.9333 39.9315 42.559 39.5688C43.1847 39.206 43.704 38.6851 44.0649 38.0584C44.4258 37.4316 44.6155 36.7209 44.6151 35.9977C44.6146 35.2744 44.424 34.564 44.0624 33.9376ZM25.6218 6.56261L32.5068 18.4576L28.9893 17.5201C28.7098 17.4654 28.4199 17.5187 28.1781 17.6694C27.9364 17.8201 27.7608 18.0568 27.6868 18.3319C27.6128 18.607 27.6459 18.8999 27.7794 19.1515C27.9129 19.4031 28.1369 19.5947 28.4062 19.6876L34.5524 21.3357C34.8406 21.4124 35.1474 21.3716 35.4055 21.2222C35.6635 21.0727 35.8517 20.827 35.9287 20.5389L37.5768 14.3926C37.6219 14.248 37.6374 14.0957 37.6222 13.9449C37.6071 13.7941 37.5616 13.648 37.4885 13.5152C37.4155 13.3824 37.3164 13.2658 37.1971 13.1723C37.0779 13.0788 36.941 13.0103 36.7947 12.971C36.6483 12.9317 36.4955 12.9224 36.3455 12.9436C36.1954 12.9647 36.0512 13.016 35.9215 13.0943C35.7918 13.1727 35.6792 13.2764 35.5905 13.3993C35.5019 13.5221 35.4389 13.6617 35.4055 13.8095L34.4587 17.3382L27.5624 5.43761C27.1991 4.81514 26.679 4.29873 26.0539 3.93984C25.4289 3.58094 24.7207 3.39209 23.9999 3.39209C23.2792 3.39209 22.571 3.58094 21.9459 3.93984C21.3209 4.29873 20.8008 4.81514 20.4374 5.43761L16.0874 12.9376C15.9447 13.1956 15.9089 13.4992 15.9877 13.7833C16.0666 14.0674 16.2538 14.3091 16.5091 14.4566C16.7645 14.604 17.0674 14.6453 17.3529 14.5717C17.6383 14.498 17.8835 14.3152 18.0355 14.0626L22.378 6.56261C22.5429 6.27848 22.7794 6.04263 23.0641 5.87868C23.3487 5.71473 23.6714 5.62844 23.9999 5.62844C24.3284 5.62844 24.6511 5.71473 24.9358 5.87868C25.2204 6.04263 25.457 6.27848 25.6218 6.56261Z" fill="#548235"/>
</svg>
