<svg width="85" height="84" viewBox="0 0 85 84" fill="none" xmlns="http://www.w3.org/2000/svg">
<path d="M72.1103 55.6862L69.5363 55.3282C72.3243 35.2242 69.9363 20.6702 62.4523 12.0722C56.1883 4.88016 47.4663 3.37016 41.2663 3.37016C35.0663 3.37016 26.3463 4.88016 20.0823 12.0702C12.5943 20.6702 10.2103 35.2242 12.9983 55.3282L10.4243 55.6862C7.52634 34.8042 10.1163 19.5542 18.1203 10.3642C23.5863 4.08816 31.5883 0.76416 41.2643 0.76416C50.9403 0.76416 58.9463 4.08216 64.4123 10.3642C72.4163 19.5562 75.0083 34.8042 72.1103 55.6862Z" fill="#FFD700"/>
<path opacity="0.5" d="M72.1103 55.6862L69.5363 55.3282C72.3243 35.2242 69.9363 20.6702 62.4523 12.0722C56.1883 4.88016 47.4663 3.37016 41.2663 3.37016C35.0663 3.37016 26.3463 4.88016 20.0823 12.0702C12.5943 20.6702 10.2103 35.2242 12.9983 55.3282L10.4243 55.6862C7.52634 34.8042 10.1163 19.5542 18.1203 10.3642C23.5863 4.08816 31.5883 0.76416 41.2643 0.76416C50.9403 0.76416 58.9463 4.08216 64.4123 10.3642C72.4163 19.5562 75.0083 34.8042 72.1103 55.6862Z" fill="black"/>
<path d="M73.4023 54.8501L65.2863 81.1601H17.2463L9.13034 54.8501H73.4023Z" fill="#FFD700"/>
<path opacity="0.4" d="M73.4023 54.8501L65.2863 81.1601H17.2463L9.13034 54.8501H73.4023Z" fill="black"/>
<g opacity="0.2">
<path d="M42.8123 60.4442C49.2863 60.3102 56.4823 60.3142 62.9603 60.4442C56.4823 60.5742 49.2863 60.5762 42.8123 60.4442Z" fill="black"/>
<path d="M40.5323 63.1739C47.2003 63.0419 54.6163 63.0439 61.2903 63.1739C54.6143 63.3039 47.2023 63.3059 40.5323 63.1739Z" fill="black"/>
<path d="M44.8983 60.4438C45.0364 61.3486 45.0364 62.2691 44.8983 63.1739C44.7613 62.269 44.7613 61.3487 44.8983 60.4438Z" fill="black"/>
<path d="M55.0663 60.4438C55.2033 61.3487 55.2033 62.269 55.0663 63.1739C54.9283 62.2691 54.9283 61.3486 55.0663 60.4438Z" fill="black"/>
<path d="M49.9784 63.1621C50.1164 64.0669 50.1164 64.9873 49.9784 65.8921C49.8414 64.9873 49.8414 64.067 49.9784 63.1621Z" fill="black"/>
<path d="M24.4023 72.8522C30.8763 72.7202 38.0743 72.7222 44.5503 72.8522C38.0723 72.9822 30.8783 72.9862 24.4023 72.8522Z" fill="black"/>
<path d="M19.5724 75.5821C26.2424 75.4501 33.6564 75.4521 40.3304 75.5821C33.6564 75.7121 26.2444 75.7161 19.5724 75.5821Z" fill="black"/>
<path d="M43.7444 70.1401C48.0424 70.0061 52.3704 70.0061 56.6684 70.1401C52.3684 70.2761 48.0424 70.2761 43.7444 70.1401Z" fill="black"/>
<path d="M48.3184 72.852C52.6164 72.718 56.9444 72.718 61.2424 72.852C56.9424 72.986 52.6164 72.986 48.3184 72.852Z" fill="black"/>
<path d="M29.6104 72.8521C29.7494 73.7567 29.7494 74.6774 29.6104 75.582C29.4733 74.6772 29.4733 73.7569 29.6104 72.8521Z" fill="black"/>
<path d="M39.7784 72.8521C39.9154 73.7569 39.9154 74.6772 39.7784 75.582C39.6394 74.6774 39.6394 73.7567 39.7784 72.8521Z" fill="black"/>
<path d="M49.9444 72.8521C50.0814 73.7569 50.0814 74.6772 49.9444 75.582C49.8063 74.6773 49.8063 73.7568 49.9444 72.8521Z" fill="black"/>
<path d="M60.1103 72.8521C60.2473 73.7569 60.2473 74.6772 60.1103 75.582C59.9723 74.6773 59.9723 73.7568 60.1103 72.8521Z" fill="black"/>
<path d="M24.5264 75.5698C24.6634 76.4747 24.6634 77.395 24.5264 78.2998C24.3883 77.3951 24.3883 76.4746 24.5264 75.5698Z" fill="black"/>
<path d="M34.7083 75.5698C34.8464 76.4746 34.8464 77.3951 34.7083 78.2998C34.5713 77.395 34.5713 76.4747 34.7083 75.5698Z" fill="black"/>
<path d="M55.0663 70.064C55.2033 70.9688 55.2033 71.8891 55.0663 72.794C54.9283 71.8892 54.9283 70.9687 55.0663 70.064Z" fill="black"/>
<path d="M22.1263 60.4379C24.9963 60.3019 27.8903 60.3019 30.7603 60.4379C27.8883 60.5739 24.9963 60.5739 22.1263 60.4379Z" fill="black"/>
<path d="M20.1064 63.1679C24.7464 63.0339 29.4164 63.0339 34.0564 63.1679C29.4164 63.3019 24.7464 63.3019 20.1064 63.1679Z" fill="black"/>
<path d="M24.5304 57.708C24.6684 58.6128 24.6684 59.5332 24.5304 60.438C24.3934 59.5332 24.3934 58.6129 24.5304 57.708Z" fill="black"/>
<path d="M29.6104 60.438C29.7494 61.3427 29.7494 62.2633 29.6104 63.168C29.4733 62.2631 29.4733 61.3428 29.6104 60.438Z" fill="black"/>
</g>
<path d="M67.2523 79.082H15.2803V83.236H67.2523V79.082Z" fill="#FFD700"/>
<path opacity="0.5" d="M67.2523 79.082H15.2803V83.236H67.2523V79.082Z" fill="black"/>
<path d="M75.5923 52.772H6.94034V56.926H75.5923V52.772Z" fill="#FFD700"/>
<path opacity="0.5" d="M75.5923 52.772H6.94034V56.926H75.5923V52.772Z" fill="black"/>
<path d="M9.88636 59.9C9.88636 59.9 10.6344 66.934 4.59436 71.3C4.17636 71.602 9.03436 72.316 10.2744 71.664C11.5144 71.012 12.4144 64.318 11.1904 59.688L9.88636 59.9Z" fill="#FFD700"/>
<g opacity="0.1">
<path d="M9.88636 59.9C9.88636 59.9 10.6344 66.934 4.59436 71.3C4.17636 71.602 9.03436 72.316 10.2744 71.664C11.5144 71.012 12.4144 64.318 11.1904 59.688L9.88636 59.9Z" fill="black"/>
</g>
<path d="M10.9783 60.5943C10.6483 61.3003 2.90035 62.8063 0.68435 60.0663C-1.53165 57.3263 2.14235 51.3143 4.48435 51.4243C6.82635 51.5343 11.3283 59.8443 10.9783 60.5943Z" fill="#FFD700"/>
<path opacity="0.1" d="M10.9783 60.5943C10.6483 61.3003 2.90035 62.8063 0.68435 60.0663C-1.53165 57.3263 2.14235 51.3143 4.48435 51.4243C6.82635 51.5343 11.3283 59.8443 10.9783 60.5943Z" fill="black"/>
<path opacity="0.2" d="M10.7523 60.6282C10.4103 61.0582 3.27434 59.1502 4.55234 56.2882C5.83034 53.4262 11.0903 60.2022 10.7523 60.6282Z" fill="black"/>
<path d="M10.3803 59.1261C10.3803 59.1261 13.5463 64.4921 13.0523 72.5261C12.9823 73.6601 16.4803 69.3061 16.1523 67.9061C15.8243 66.5061 14.5283 61.4501 11.5703 58.9541L10.3803 59.1261Z" fill="#FFD700"/>
<path d="M7.02234 48.2861C5.46834 50.2861 8.52834 58.0301 11.1903 59.6861C11.6383 59.9661 15.7483 51.1021 13.7903 48.9041C11.8323 46.7061 8.15234 46.8281 7.02234 48.2861Z" fill="#FFD700"/>
<path opacity="0.2" d="M11.1904 59.6921C11.1904 59.6921 8.24236 52.5061 10.3904 51.9781C12.5384 51.4501 11.5644 59.6281 11.1904 59.6921Z" fill="black"/>
<path d="M72.7683 58.4881C72.7683 58.4881 71.8223 66.0661 79.5303 67.4761C80.0803 67.5761 75.8543 71.3081 74.0043 70.6641C72.1543 70.0201 68.9263 65.1701 71.8043 58.3101L72.7683 58.4881Z" fill="#FFD700"/>
<g opacity="0.1">
<path d="M72.7683 58.4881C72.7683 58.4881 71.8223 66.0661 79.5303 67.4761C80.0803 67.5761 75.8543 71.3081 74.0043 70.6641C72.1543 70.0201 68.9263 65.1701 71.8043 58.3101L72.7683 58.4881Z" fill="black"/>
</g>
<path d="M71.7904 58.3084C71.7904 58.3084 67.3304 68.7624 71.8904 72.5484C72.2124 72.8144 66.9544 72.7804 66.6904 72.1304C66.4264 71.4804 65.5204 65.1424 70.8204 58.1304L71.7904 58.3084Z" fill="#FFD700"/>
<path d="M83.9004 54.4279C86.0264 55.6279 82.4504 62.6779 78.0784 61.7039C73.7064 60.7299 70.9184 59.4019 70.7804 58.5599C70.6424 57.7179 79.7784 52.0919 83.9004 54.4279Z" fill="#FFD700"/>
<path opacity="0.1" d="M83.9004 54.4279C86.0264 55.6279 82.4504 62.6779 78.0784 61.7039C73.7064 60.7299 70.9184 59.4019 70.7804 58.5599C70.6424 57.7179 79.7784 52.0919 83.9004 54.4279Z" fill="black"/>
<path opacity="0.2" d="M71.0084 58.7463C70.9504 58.6263 79.5044 58.9003 79.5724 60.5743C79.6404 62.2483 71.3444 59.4523 71.0084 58.7463Z" fill="black"/>
<path d="M69.7224 58.5941C69.0504 57.8261 73.6064 49.1561 78.1384 48.2941C82.6704 47.4321 81.0664 56.8281 78.5904 57.9421C76.1144 59.0561 70.4284 59.4021 69.7224 58.5941Z" fill="#FFD700"/>
<path opacity="0.2" d="M70.0483 58.566C70.0983 58.348 74.4123 54.126 75.7503 55.906C76.8763 57.402 69.9903 58.828 70.0483 58.566Z" fill="black"/>
</svg>
