<svg width="213" height="207" viewBox="0 0 213 207" fill="none" xmlns="http://www.w3.org/2000/svg">
<path d="M180.996 137.854L174.536 136.956C181.534 86.4946 175.54 49.9641 156.755 28.3831C141.032 10.3312 119.14 6.54106 103.578 6.54106C88.016 6.54106 66.1288 10.3312 50.4061 28.3781C31.6112 49.9641 25.6274 86.4946 32.6253 136.956L26.1645 137.854C18.8906 85.4404 25.3915 47.1629 45.4815 24.096C59.2012 8.34324 79.2862 0 103.573 0C127.86 0 147.955 8.32818 161.674 24.096C181.764 47.1679 188.27 85.4404 180.996 137.854Z" fill="#FFD700"/>
<path opacity="0.5" d="M180.996 137.854L174.536 136.956C181.534 86.4946 175.54 49.9641 156.755 28.3831C141.032 10.3312 119.14 6.54106 103.578 6.54106C88.016 6.54106 66.1288 10.3312 50.4061 28.3781C31.6112 49.9641 25.6274 86.4946 32.6253 136.956L26.1645 137.854C18.8906 85.4404 25.3915 47.1629 45.4815 24.096C59.2012 8.34324 79.2862 0 103.573 0C127.86 0 147.955 8.32818 161.674 24.096C181.764 47.1679 188.27 85.4404 180.996 137.854Z" fill="black"/>
<path d="M184.24 135.755L163.869 201.793H43.2881L22.917 135.755H184.24Z" fill="#FFD700"/>
<path opacity="0.4" d="M184.24 135.755L163.869 201.793H43.2881L22.917 135.755H184.24Z" fill="black"/>
<g opacity="0.2">
<path d="M107.459 149.796C123.709 149.46 141.771 149.47 158.03 149.796C141.771 150.123 123.709 150.128 107.459 149.796Z" fill="black"/>
<path d="M101.736 156.648C118.473 156.317 137.087 156.322 153.839 156.648C137.082 156.975 118.478 156.98 101.736 156.648Z" fill="black"/>
<path d="M112.695 149.796C113.042 152.067 113.042 154.378 112.695 156.649C112.352 154.378 112.352 152.068 112.695 149.796Z" fill="black"/>
<path d="M138.217 149.796C138.561 152.068 138.561 154.378 138.217 156.649C137.87 154.378 137.87 152.067 138.217 149.796Z" fill="black"/>
<path d="M125.446 156.618C125.793 158.889 125.793 161.2 125.446 163.471C125.103 161.2 125.103 158.89 125.446 156.618Z" fill="black"/>
<path d="M61.25 180.94C77.4997 180.609 95.5667 180.614 111.821 180.94C95.5617 181.267 77.5048 181.277 61.25 180.94Z" fill="black"/>
<path d="M49.127 187.793C65.8687 187.461 84.4778 187.466 101.23 187.793C84.4778 188.119 65.8737 188.129 49.127 187.793Z" fill="black"/>
<path d="M109.799 174.133C120.587 173.797 131.45 173.797 142.238 174.133C131.445 174.474 120.587 174.474 109.799 174.133Z" fill="black"/>
<path d="M121.279 180.94C132.067 180.604 142.931 180.604 153.719 180.94C142.926 181.277 132.067 181.277 121.279 180.94Z" fill="black"/>
<path d="M74.3224 180.94C74.6713 183.211 74.6713 185.522 74.3224 187.793C73.9785 185.522 73.9785 183.212 74.3224 180.94Z" fill="black"/>
<path d="M99.8437 180.94C100.188 183.212 100.188 185.522 99.8437 187.793C99.4948 185.522 99.4948 183.211 99.8437 180.94Z" fill="black"/>
<path d="M125.36 180.94C125.704 183.212 125.704 185.522 125.36 187.793C125.014 185.522 125.014 183.211 125.36 180.94Z" fill="black"/>
<path d="M150.878 180.94C151.222 183.212 151.222 185.522 150.878 187.793C150.532 185.522 150.532 183.211 150.878 180.94Z" fill="black"/>
<path d="M61.5616 187.763C61.9054 190.034 61.9054 192.344 61.5616 194.615C61.2152 192.344 61.2152 190.034 61.5616 187.763Z" fill="black"/>
<path d="M87.1183 187.763C87.4647 190.034 87.4647 192.344 87.1183 194.615C86.7744 192.344 86.7744 190.034 87.1183 187.763Z" fill="black"/>
<path d="M138.217 173.942C138.561 176.214 138.561 178.524 138.217 180.795C137.87 178.524 137.87 176.213 138.217 173.942Z" fill="black"/>
<path d="M55.5371 149.781C62.7408 149.44 70.0047 149.44 77.2084 149.781C69.9997 150.123 62.7408 150.123 55.5371 149.781Z" fill="black"/>
<path d="M50.4678 156.633C62.1142 156.297 73.8359 156.297 85.4823 156.633C73.8359 156.97 62.1142 156.97 50.4678 156.633Z" fill="black"/>
<path d="M61.5714 142.929C61.9178 145.2 61.9178 147.51 61.5714 149.781C61.2275 147.51 61.2275 145.2 61.5714 142.929Z" fill="black"/>
<path d="M74.3224 149.781C74.6713 152.052 74.6713 154.363 74.3224 156.634C73.9785 154.362 73.9785 152.052 74.3224 149.781Z" fill="black"/>
</g>
<path d="M168.803 196.578H38.3535V207.004H168.803V196.578Z" fill="#FFD700"/>
<path opacity="0.5" d="M168.803 196.578H38.3535V207.004H168.803V196.578Z" fill="black"/>
<path d="M189.737 130.54H17.4209V140.966H189.737V130.54Z" fill="#FFD700"/>
<path opacity="0.5" d="M189.737 130.54H17.4209V140.966H189.737V130.54Z" fill="black"/>
<path d="M24.8155 148.431C24.8155 148.431 26.693 166.086 11.5326 177.045C10.4834 177.803 22.677 179.595 25.7894 177.959C28.9018 176.322 31.1608 159.52 28.0885 147.899L24.8155 148.431Z" fill="#FFD700"/>
<g opacity="0.1">
<path d="M24.8155 148.431C24.8155 148.431 26.693 166.086 11.5326 177.045C10.4834 177.803 22.677 179.595 25.7894 177.959C28.9018 176.322 31.1608 159.52 28.0885 147.899L24.8155 148.431Z" fill="black"/>
</g>
<path d="M27.5557 150.173C26.7274 151.945 7.27988 155.725 1.71772 148.847C-3.84444 141.97 5.3773 126.88 11.2557 127.156C17.1341 127.432 28.4342 148.29 27.5557 150.173Z" fill="#FFD700"/>
<path opacity="0.1" d="M27.5557 150.173C26.7274 151.945 7.27988 155.725 1.71772 148.847C-3.84444 141.97 5.3773 126.88 11.2557 127.156C17.1341 127.432 28.4342 148.29 27.5557 150.173Z" fill="black"/>
<path opacity="0.2" d="M26.9891 150.258C26.1307 151.338 8.21933 146.548 11.4271 139.365C14.6349 132.181 27.8375 149.189 26.9891 150.258Z" fill="black"/>
<path d="M26.0547 146.488C26.0547 146.488 34.0013 159.957 32.7614 180.122C32.5857 182.968 41.3657 172.04 40.5424 168.526C39.7191 165.012 36.4662 152.321 29.0416 146.056L26.0547 146.488Z" fill="#FFD700"/>
<path d="M17.6268 119.279C13.7263 124.299 21.4069 143.737 28.0885 147.893C29.213 148.596 39.5291 126.348 34.6145 120.831C29.6999 115.314 20.4631 115.62 17.6268 119.279Z" fill="#FFD700"/>
<path opacity="0.2" d="M28.0876 147.909C28.0876 147.909 20.6881 129.872 26.0796 128.546C31.4711 127.221 29.0264 147.748 28.0876 147.909Z" fill="black"/>
<path d="M182.649 144.887C182.649 144.887 180.274 163.907 199.621 167.447C201.002 167.698 190.395 177.065 185.751 175.448C181.108 173.832 173.005 161.659 180.229 144.44L182.649 144.887Z" fill="#FFD700"/>
<g opacity="0.1">
<path d="M182.649 144.887C182.649 144.887 180.274 163.907 199.621 167.447C201.002 167.698 190.395 177.065 185.751 175.448C181.108 173.832 173.005 161.659 180.229 144.44L182.649 144.887Z" fill="black"/>
</g>
<path d="M180.194 144.435C180.194 144.435 168.999 170.675 180.445 180.178C181.253 180.845 168.056 180.76 167.393 179.129C166.73 177.497 164.456 161.589 177.759 143.989L180.194 144.435Z" fill="#FFD700"/>
<path d="M210.589 134.696C215.926 137.708 206.95 155.404 195.976 152.959C185.002 150.514 178.005 147.181 177.658 145.068C177.312 142.954 200.243 128.833 210.589 134.696Z" fill="#FFD700"/>
<path opacity="0.1" d="M210.589 134.696C215.926 137.708 206.95 155.404 195.976 152.959C185.002 150.514 178.005 147.181 177.658 145.068C177.312 142.954 200.243 128.833 210.589 134.696Z" fill="black"/>
<path opacity="0.2" d="M178.231 145.534C178.086 145.233 199.556 145.921 199.727 150.123C199.898 154.324 179.075 147.306 178.231 145.534Z" fill="black"/>
<path d="M175.003 145.153C173.316 143.225 184.752 121.464 196.127 119.3C207.503 117.136 203.477 140.72 197.262 143.516C191.047 146.313 176.775 147.181 175.003 145.153Z" fill="#FFD700"/>
<path opacity="0.2" d="M175.821 145.083C175.947 144.536 186.775 133.938 190.133 138.406C192.96 142.161 175.676 145.74 175.821 145.083Z" fill="black"/>
</svg>
