<svg width="100" height="100" viewBox="0 0 100 100" fill="none" xmlns="http://www.w3.org/2000/svg">
<path d="M80.844 64.858L78.27 64.5C81.058 44.396 78.67 29.842 71.186 21.244C64.922 14.052 56.2 12.542 50 12.542C43.8 12.542 35.08 14.052 28.816 21.242C21.328 29.842 18.944 44.396 21.732 64.5L19.158 64.858C16.26 43.976 18.85 28.726 26.854 19.536C32.32 13.26 40.322 9.93604 49.998 9.93604C59.674 9.93604 67.68 13.254 73.146 19.536C81.15 28.728 83.742 43.976 80.844 64.858Z" fill="black"/>
<path opacity="0.5" d="M80.844 64.858L78.27 64.5C81.058 44.396 78.67 29.842 71.186 21.244C64.922 14.052 56.2 12.542 50 12.542C43.8 12.542 35.08 14.052 28.816 21.242C21.328 29.842 18.944 44.396 21.732 64.5L19.158 64.858C16.26 43.976 18.85 28.726 26.854 19.536C32.32 13.26 40.322 9.93604 49.998 9.93604C59.674 9.93604 67.68 13.254 73.146 19.536C81.15 28.728 83.742 43.976 80.844 64.858Z" fill="black"/>
<path d="M82.136 64.022L74.02 90.332H25.98L17.864 64.022H82.136Z" fill="black"/>
<path opacity="0.4" d="M82.136 64.022L74.02 90.332H25.98L17.864 64.022H82.136Z" fill="black"/>
<g opacity="0.2">
<path d="M51.546 69.6161C58.02 69.4821 65.216 69.4861 71.694 69.6161C65.216 69.7461 58.02 69.7481 51.546 69.6161Z" fill="black"/>
<path d="M49.266 72.3458C55.934 72.2138 63.35 72.2158 70.024 72.3458C63.348 72.4758 55.936 72.4778 49.266 72.3458Z" fill="black"/>
<path d="M53.632 69.6157C53.77 70.5205 53.77 71.441 53.632 72.3457C53.495 71.4409 53.495 70.5206 53.632 69.6157Z" fill="black"/>
<path d="M63.8 69.6157C63.937 70.5206 63.937 71.4409 63.8 72.3457C63.662 71.441 63.662 70.5205 63.8 69.6157Z" fill="black"/>
<path d="M58.712 72.334C58.85 73.2388 58.85 74.1592 58.712 75.064C58.575 74.1591 58.575 73.2388 58.712 72.334Z" fill="black"/>
<path d="M33.136 82.024C39.61 81.892 46.808 81.894 53.284 82.024C46.806 82.154 39.612 82.158 33.136 82.024Z" fill="black"/>
<path d="M28.306 84.754C34.976 84.622 42.39 84.624 49.064 84.754C42.39 84.884 34.978 84.888 28.306 84.754Z" fill="black"/>
<path d="M52.478 79.3119C56.776 79.1779 61.104 79.1779 65.402 79.3119C61.102 79.4479 56.776 79.4479 52.478 79.3119Z" fill="black"/>
<path d="M57.052 82.0238C61.35 81.8898 65.678 81.8898 69.976 82.0238C65.676 82.1578 61.35 82.1578 57.052 82.0238Z" fill="black"/>
<path d="M38.344 82.0239C38.483 82.9286 38.483 83.8492 38.344 84.7539C38.207 83.8491 38.207 82.9288 38.344 82.0239Z" fill="black"/>
<path d="M48.512 82.0239C48.649 82.9288 48.649 83.8491 48.512 84.7539C48.373 83.8492 48.373 82.9286 48.512 82.0239Z" fill="black"/>
<path d="M58.678 82.0239C58.815 82.9288 58.815 83.8491 58.678 84.7539C58.54 83.8492 58.54 82.9287 58.678 82.0239Z" fill="black"/>
<path d="M68.844 82.0239C68.981 82.9288 68.981 83.8491 68.844 84.7539C68.706 83.8492 68.706 82.9287 68.844 82.0239Z" fill="black"/>
<path d="M33.26 84.7417C33.397 85.6465 33.397 86.5669 33.26 87.4717C33.122 86.5669 33.122 85.6465 33.26 84.7417Z" fill="black"/>
<path d="M43.442 84.7417C43.58 85.6465 43.58 86.5669 43.442 87.4717C43.305 86.5669 43.305 85.6465 43.442 84.7417Z" fill="black"/>
<path d="M63.8 79.2358C63.937 80.1407 63.937 81.061 63.8 81.9658C63.662 81.0611 63.662 80.1406 63.8 79.2358Z" fill="black"/>
<path d="M30.86 69.6098C33.73 69.4738 36.624 69.4738 39.494 69.6098C36.622 69.7458 33.73 69.7458 30.86 69.6098Z" fill="black"/>
<path d="M28.84 72.3398C33.48 72.2058 38.15 72.2058 42.79 72.3398C38.15 72.4738 33.48 72.4738 28.84 72.3398Z" fill="black"/>
<path d="M33.264 66.8799C33.402 67.7846 33.402 68.7051 33.264 69.6099C33.127 68.705 33.127 67.7847 33.264 66.8799Z" fill="black"/>
<path d="M38.344 69.6099C38.483 70.5146 38.483 71.4352 38.344 72.3399C38.207 71.435 38.207 70.5147 38.344 69.6099Z" fill="black"/>
</g>
<path d="M75.986 88.2539H24.014V92.4079H75.986V88.2539Z" fill="black"/>
<path opacity="0.5" d="M75.986 88.2539H24.014V92.4079H75.986V88.2539Z" fill="black"/>
<path d="M84.326 61.9438H15.674V66.0978H84.326V61.9438Z" fill="black"/>
<path opacity="0.5" d="M84.326 61.9438H15.674V66.0978H84.326V61.9438Z" fill="black"/>
<path d="M8.53601 92.3198C35.1 92.1978 64.9 92.1958 91.464 92.3198C64.9 92.4438 35.1 92.4418 8.53601 92.3198Z" fill="#263238"/>
</svg>
