<svg width="70" height="84" viewBox="0 0 70 84" fill="none" xmlns="http://www.w3.org/2000/svg">
<path d="M65.844 55.858L63.27 55.5C66.058 35.396 63.67 20.842 56.186 12.244C49.922 5.05204 41.2 3.54203 35 3.54203C28.8 3.54203 20.08 5.05203 13.816 12.242C6.32802 20.842 3.94402 35.396 6.73202 55.5L4.15802 55.858C1.26002 34.976 3.85002 19.726 11.854 10.536C17.32 4.26004 25.322 0.936035 34.998 0.936035C44.674 0.936035 52.68 4.25404 58.146 10.536C66.15 19.728 68.742 34.976 65.844 55.858Z" fill="black"/>
<path opacity="0.5" d="M65.844 55.858L63.27 55.5C66.058 35.396 63.67 20.842 56.186 12.244C49.922 5.05204 41.2 3.54203 35 3.54203C28.8 3.54203 20.08 5.05203 13.816 12.242C6.32802 20.842 3.94402 35.396 6.73202 55.5L4.15802 55.858C1.26002 34.976 3.85002 19.726 11.854 10.536C17.32 4.26004 25.322 0.936035 34.998 0.936035C44.674 0.936035 52.68 4.25404 58.146 10.536C66.15 19.728 68.742 34.976 65.844 55.858Z" fill="black"/>
<path d="M67.136 55.022L59.02 81.332H10.98L2.86401 55.022H67.136Z" fill="black"/>
<path opacity="0.4" d="M67.136 55.022L59.02 81.332H10.98L2.86401 55.022H67.136Z" fill="black"/>
<g opacity="0.2">
<path d="M36.546 60.6161C43.02 60.4821 50.216 60.4861 56.694 60.6161C50.216 60.7461 43.02 60.7481 36.546 60.6161Z" fill="black"/>
<path d="M34.266 63.3461C40.934 63.2141 48.35 63.2161 55.024 63.3461C48.348 63.4761 40.936 63.4781 34.266 63.3461Z" fill="black"/>
<path d="M38.632 60.6162C38.77 61.521 38.77 62.4414 38.632 63.3462C38.495 62.4414 38.495 61.5211 38.632 60.6162Z" fill="black"/>
<path d="M48.8 60.6162C48.937 61.5211 48.937 62.4414 48.8 63.3462C48.662 62.4414 48.662 61.521 48.8 60.6162Z" fill="black"/>
<path d="M43.712 63.3342C43.85 64.239 43.85 65.1595 43.712 66.0642C43.575 65.1594 43.575 64.2391 43.712 63.3342Z" fill="black"/>
<path d="M18.136 73.024C24.61 72.892 31.808 72.894 38.284 73.024C31.806 73.154 24.612 73.158 18.136 73.024Z" fill="black"/>
<path d="M13.306 75.754C19.976 75.622 27.39 75.624 34.064 75.754C27.39 75.884 19.978 75.888 13.306 75.754Z" fill="black"/>
<path d="M37.478 70.3122C41.776 70.1782 46.104 70.1782 50.402 70.3122C46.102 70.4482 41.776 70.4482 37.478 70.3122Z" fill="black"/>
<path d="M42.052 73.0241C46.35 72.8901 50.678 72.8901 54.976 73.0241C50.676 73.1581 46.35 73.1581 42.052 73.0241Z" fill="black"/>
<path d="M23.344 73.0242C23.483 73.9289 23.483 74.8495 23.344 75.7542C23.207 74.8493 23.207 73.929 23.344 73.0242Z" fill="black"/>
<path d="M33.512 73.0242C33.649 73.929 33.649 74.8493 33.512 75.7542C33.373 74.8495 33.373 73.9289 33.512 73.0242Z" fill="black"/>
<path d="M43.678 73.0242C43.815 73.929 43.815 74.8493 43.678 75.7542C43.54 74.8494 43.54 73.9289 43.678 73.0242Z" fill="black"/>
<path d="M53.844 73.0242C53.981 73.929 53.981 74.8493 53.844 75.7542C53.706 74.8494 53.706 73.9289 53.844 73.0242Z" fill="black"/>
<path d="M18.26 75.7422C18.397 76.647 18.397 77.5673 18.26 78.4722C18.122 77.5674 18.122 76.647 18.26 75.7422Z" fill="black"/>
<path d="M28.442 75.7422C28.58 76.647 28.58 77.5674 28.442 78.4722C28.305 77.5673 28.305 76.647 28.442 75.7422Z" fill="black"/>
<path d="M48.8 70.2361C48.937 71.1409 48.937 72.0612 48.8 72.9661C48.662 72.0613 48.662 71.1409 48.8 70.2361Z" fill="black"/>
<path d="M15.86 60.6101C18.73 60.4741 21.624 60.4741 24.494 60.6101C21.622 60.7461 18.73 60.7461 15.86 60.6101Z" fill="black"/>
<path d="M13.84 63.3402C18.48 63.2062 23.15 63.2062 27.79 63.3402C23.15 63.4742 18.48 63.4742 13.84 63.3402Z" fill="black"/>
<path d="M18.264 57.8801C18.402 58.7849 18.402 59.7054 18.264 60.6101C18.127 59.7053 18.127 58.785 18.264 57.8801Z" fill="black"/>
<path d="M23.344 60.6101C23.483 61.5148 23.483 62.4354 23.344 63.3401C23.207 62.4353 23.207 61.515 23.344 60.6101Z" fill="black"/>
</g>
<path d="M60.986 79.2542H9.01401V83.4082H60.986V79.2542Z" fill="black"/>
<path opacity="0.5" d="M60.986 79.2542H9.01401V83.4082H60.986V79.2542Z" fill="black"/>
<path d="M69.326 52.9441H0.674011V57.0981H69.326V52.9441Z" fill="black"/>
<path opacity="0.5" d="M69.326 52.9441H0.674011V57.0981H69.326V52.9441Z" fill="black"/>
</svg>
