<svg width="37" height="37" viewBox="0 0 37 37" fill="none" xmlns="http://www.w3.org/2000/svg">
<g clip-path="url(#clip0_3491_3787)">
<path d="M0 18.5C0 8.28273 8.28273 0 18.5 0C28.7173 0 37 8.28273 37 18.5C37 28.7173 28.7173 37 18.5 37C8.28273 37 0 28.7173 0 18.5Z" fill="white"/>
<path d="M18.5 12.8267C20.237 12.8267 21.4086 13.5769 22.0767 14.2039L24.6873 11.655C23.0839 10.1647 20.9975 9.25 18.5 9.25C14.8823 9.25 11.7578 11.3261 10.2367 14.3478L13.2275 16.6706C13.9778 14.4403 16.0539 12.8267 18.5 12.8267Z" fill="#EA4335"/>
<path d="M27.38 18.7056C27.38 17.945 27.3183 17.39 27.1847 16.8145H18.5V20.2472H23.5978C23.495 21.1003 22.94 22.385 21.7067 23.2483L24.6256 25.5095C26.3728 23.8958 27.38 21.5217 27.38 18.7056Z" fill="#4285F4"/>
<path d="M13.2378 20.3296C13.0425 19.754 12.9294 19.1373 12.9294 18.5001C12.9294 17.8629 13.0425 17.2462 13.2275 16.6707L10.2367 14.3479C9.60972 15.6018 9.25 17.0098 9.25 18.5001C9.25 19.9904 9.60972 21.3985 10.2367 22.6524L13.2378 20.3296Z" fill="#FBBC05"/>
<path d="M18.5 27.7499C20.9975 27.7499 23.0942 26.9277 24.6256 25.5093L21.7067 23.2482C20.9256 23.793 19.8772 24.1732 18.5 24.1732C16.0539 24.1732 13.9778 22.5596 13.2378 20.3293L10.2469 22.6521C11.7681 25.6738 14.8822 27.7499 18.5 27.7499Z" fill="#34A853"/>
</g>
<defs>
<clipPath id="clip0_3491_3787">
<rect width="37" height="37" fill="white"/>
</clipPath>
</defs>
</svg>
